<mxfile host="app.diagrams.net" modified="2023-03-28T08:51:53.189Z" agent="Mozilla/5.0 (Macintosh; Intel Mac OS X 10_15_7) AppleWebKit/537.36 (KHTML, like Gecko) Chrome/104.0.0.0 Safari/537.36" etag="e2er2P1US0uXsxX5A4Sa" version="21.1.1" type="device">
  <diagram name="Seite-1" id="kd2MvjXqS4WT8QNaqASN">
    <mxGraphModel dx="1434" dy="923" grid="1" gridSize="10" guides="1" tooltips="1" connect="1" arrows="1" fold="1" page="1" pageScale="1" pageWidth="827" pageHeight="1169" math="0" shadow="0">
      <root>
        <mxCell id="0" />
        <mxCell id="1" parent="0" />
        <mxCell id="W-gK-uwAD6_eHePclnSL-9" value="2. Distribute/Delegate&lt;br&gt;Sub-Skills" style="edgeStyle=orthogonalEdgeStyle;curved=1;rounded=0;orthogonalLoop=1;jettySize=auto;html=1;exitX=0.25;exitY=1;exitDx=0;exitDy=0;entryX=0.5;entryY=0;entryDx=0;entryDy=0;startArrow=classic;startFill=1;fontSize=14;fontStyle=1;labelBackgroundColor=none;" parent="1" source="W-gK-uwAD6_eHePclnSL-11" target="W-gK-uwAD6_eHePclnSL-18" edge="1">
          <mxGeometry x="0.1091" y="-47" relative="1" as="geometry">
            <mxPoint as="offset" />
          </mxGeometry>
        </mxCell>
        <mxCell id="W-gK-uwAD6_eHePclnSL-1" value="Dataspace" style="verticalAlign=top;align=left;spacingTop=8;spacingLeft=2;spacingRight=12;shape=cube;size=10;direction=south;fontStyle=4;html=1;rounded=0;shadow=0;comic=0;labelBackgroundColor=none;strokeWidth=1;fontFamily=Verdana;fontSize=12;fillColor=#ffe6cc;strokeColor=#d79b00;" parent="1" vertex="1">
          <mxGeometry x="260" y="170" width="440" height="290" as="geometry" />
        </mxCell>
        <mxCell id="un7QEkSLnHoimzCeCq8s-5" value="Tier-X" style="verticalAlign=top;align=left;spacingTop=8;spacingLeft=2;spacingRight=12;shape=cube;size=10;direction=south;fontStyle=4;html=1;rounded=0;shadow=0;comic=0;labelBackgroundColor=none;strokeWidth=1;fontFamily=Verdana;fontSize=12;dashed=1;dashPattern=12 12;" vertex="1" parent="1">
          <mxGeometry x="440" y="408" width="110" height="120" as="geometry" />
        </mxCell>
        <mxCell id="W-gK-uwAD6_eHePclnSL-45" value="OEM B" style="verticalAlign=top;align=left;spacingTop=8;spacingLeft=2;spacingRight=12;shape=cube;size=10;direction=south;fontStyle=4;html=1;rounded=0;shadow=0;comic=0;labelBackgroundColor=none;strokeWidth=1;fontFamily=Verdana;fontSize=12;dashed=1;dashPattern=12 12;" parent="1" vertex="1">
          <mxGeometry x="193" y="340.75" width="190" height="213.25" as="geometry" />
        </mxCell>
        <mxCell id="W-gK-uwAD6_eHePclnSL-44" value="Material Producer Zn" style="verticalAlign=top;align=left;spacingTop=8;spacingLeft=2;spacingRight=12;shape=cube;size=10;direction=south;fontStyle=4;html=1;rounded=0;shadow=0;comic=0;labelBackgroundColor=none;strokeWidth=1;fontFamily=Verdana;fontSize=12;dashed=1;dashPattern=12 12;" parent="1" vertex="1">
          <mxGeometry x="607" y="339.5" width="150" height="177.5" as="geometry" />
        </mxCell>
        <mxCell id="W-gK-uwAD6_eHePclnSL-2" value="Operating Company" style="verticalAlign=top;align=left;spacingTop=8;spacingLeft=2;spacingRight=12;shape=cube;size=10;direction=south;fontStyle=4;html=1;rounded=0;shadow=0;comic=0;labelBackgroundColor=none;strokeWidth=1;fontFamily=Verdana;fontSize=12" parent="1" vertex="1">
          <mxGeometry x="370" y="10" width="200" height="180" as="geometry" />
        </mxCell>
        <mxCell id="W-gK-uwAD6_eHePclnSL-3" value="Material Producer Z1" style="verticalAlign=top;align=right;spacingTop=8;spacingLeft=2;spacingRight=12;shape=cube;size=10;direction=south;fontStyle=4;html=1;rounded=0;shadow=0;comic=0;labelBackgroundColor=none;strokeWidth=1;fontFamily=Verdana;fontSize=12" parent="1" vertex="1">
          <mxGeometry x="570" y="370" width="170" height="180" as="geometry" />
        </mxCell>
        <mxCell id="W-gK-uwAD6_eHePclnSL-4" value="OEM A" style="verticalAlign=top;align=left;spacingTop=8;spacingLeft=2;spacingRight=12;shape=cube;size=10;direction=south;fontStyle=4;html=1;rounded=0;shadow=0;comic=0;labelBackgroundColor=none;strokeWidth=1;fontFamily=Verdana;fontSize=12" parent="1" vertex="1">
          <mxGeometry x="220" y="370" width="180" height="190" as="geometry" />
        </mxCell>
        <mxCell id="W-gK-uwAD6_eHePclnSL-5" value="" style="shape=datastore;whiteSpace=wrap;html=1;fillColor=#dae8fc;strokeColor=#6c8ebf;" parent="1" vertex="1">
          <mxGeometry x="270" y="480" width="80" height="40" as="geometry" />
        </mxCell>
        <mxCell id="W-gK-uwAD6_eHePclnSL-6" value="" style="shape=datastore;whiteSpace=wrap;html=1;fillColor=#dae8fc;strokeColor=#6c8ebf;" parent="1" vertex="1">
          <mxGeometry x="600" y="480" width="80" height="40" as="geometry" />
        </mxCell>
        <mxCell id="W-gK-uwAD6_eHePclnSL-7" value="Backend" style="text;html=1;strokeColor=none;fillColor=none;align=center;verticalAlign=middle;whiteSpace=wrap;rounded=0;" parent="1" vertex="1">
          <mxGeometry x="280" y="520" width="60" height="30" as="geometry" />
        </mxCell>
        <mxCell id="W-gK-uwAD6_eHePclnSL-8" value="Backend&amp;nbsp;" style="text;html=1;strokeColor=none;fillColor=none;align=center;verticalAlign=middle;whiteSpace=wrap;rounded=0;" parent="1" vertex="1">
          <mxGeometry x="610" y="520" width="60" height="30" as="geometry" />
        </mxCell>
        <mxCell id="W-gK-uwAD6_eHePclnSL-10" style="edgeStyle=orthogonalEdgeStyle;curved=1;rounded=0;orthogonalLoop=1;jettySize=auto;html=1;exitX=0.25;exitY=1;exitDx=0;exitDy=0;entryX=0.5;entryY=0;entryDx=0;entryDy=0;startArrow=none;startFill=0;" parent="1" source="W-gK-uwAD6_eHePclnSL-11" target="W-gK-uwAD6_eHePclnSL-21" edge="1">
          <mxGeometry relative="1" as="geometry" />
        </mxCell>
        <mxCell id="un7QEkSLnHoimzCeCq8s-6" value="&lt;font style=&quot;font-size: 14px;&quot;&gt;&lt;b&gt;3. Use BPDM&lt;br&gt;(Vat-Id, BPNS, BPNA, Geo)&amp;nbsp;&lt;br&gt;to address potential&lt;br&gt;incident cause&amp;nbsp;&lt;/b&gt;&lt;/font&gt;" style="edgeLabel;html=1;align=center;verticalAlign=middle;resizable=0;points=[];labelBackgroundColor=none;" vertex="1" connectable="0" parent="W-gK-uwAD6_eHePclnSL-10">
          <mxGeometry x="-0.0691" y="3" relative="1" as="geometry">
            <mxPoint x="61" y="-44" as="offset" />
          </mxGeometry>
        </mxCell>
        <mxCell id="W-gK-uwAD6_eHePclnSL-11" value="EDC" style="html=1;dropTarget=0;fillColor=#ffe6cc;strokeColor=#d79b00;" parent="1" vertex="1">
          <mxGeometry x="485" y="131" width="40" height="35" as="geometry" />
        </mxCell>
        <mxCell id="W-gK-uwAD6_eHePclnSL-12" style="edgeStyle=orthogonalEdgeStyle;curved=1;rounded=0;orthogonalLoop=1;jettySize=auto;html=1;exitX=1;exitY=0.5;exitDx=0;exitDy=0;entryX=0;entryY=0.5;entryDx=0;entryDy=0;startArrow=none;startFill=0;endArrow=none;endFill=0;dashed=1;" parent="1" source="W-gK-uwAD6_eHePclnSL-13" target="W-gK-uwAD6_eHePclnSL-11" edge="1">
          <mxGeometry relative="1" as="geometry" />
        </mxCell>
        <mxCell id="un7QEkSLnHoimzCeCq8s-3" style="edgeStyle=orthogonalEdgeStyle;rounded=0;orthogonalLoop=1;jettySize=auto;html=1;curved=1;" edge="1" parent="1" source="W-gK-uwAD6_eHePclnSL-13" target="un7QEkSLnHoimzCeCq8s-1">
          <mxGeometry relative="1" as="geometry" />
        </mxCell>
        <mxCell id="un7QEkSLnHoimzCeCq8s-4" value="2. Global&lt;br&gt;Search" style="edgeLabel;html=1;align=center;verticalAlign=middle;resizable=0;points=[];fontSize=14;fontStyle=1;labelBackgroundColor=none;" vertex="1" connectable="0" parent="un7QEkSLnHoimzCeCq8s-3">
          <mxGeometry x="0.224" y="5" relative="1" as="geometry">
            <mxPoint x="33" y="-5" as="offset" />
          </mxGeometry>
        </mxCell>
        <mxCell id="W-gK-uwAD6_eHePclnSL-13" value="Agent" style="html=1;dropTarget=0;fillColor=#d5e8d4;strokeColor=#82b366;" parent="1" vertex="1">
          <mxGeometry x="413" y="131" width="70" height="35" as="geometry" />
        </mxCell>
        <mxCell id="W-gK-uwAD6_eHePclnSL-15" value="1.Invoke Incident Search Skill&lt;br style=&quot;font-size: 14px;&quot;&gt;(Procedure)" style="edgeStyle=orthogonalEdgeStyle;rounded=0;orthogonalLoop=1;jettySize=auto;html=1;exitX=0.2;exitY=0.971;exitDx=0;exitDy=0;entryX=0.25;entryY=0;entryDx=0;entryDy=0;curved=1;fontSize=14;fontStyle=1;labelBackgroundColor=none;exitPerimeter=0;" parent="1" source="W-gK-uwAD6_eHePclnSL-16" target="W-gK-uwAD6_eHePclnSL-13" edge="1">
          <mxGeometry x="0.0345" y="-120" relative="1" as="geometry">
            <mxPoint as="offset" />
          </mxGeometry>
        </mxCell>
        <mxCell id="W-gK-uwAD6_eHePclnSL-16" value="&lt;div&gt;&lt;span style=&quot;background-color: initial;&quot;&gt;Intake App&lt;/span&gt;&lt;br&gt;&lt;/div&gt;" style="html=1;dropTarget=0;fillColor=#dae8fc;strokeColor=#6c8ebf;" parent="1" vertex="1">
          <mxGeometry x="415" y="60" width="110" height="35" as="geometry" />
        </mxCell>
        <mxCell id="W-gK-uwAD6_eHePclnSL-18" value="EDC" style="html=1;dropTarget=0;fillColor=#ffe6cc;strokeColor=#d79b00;" parent="1" vertex="1">
          <mxGeometry x="320" y="408" width="55" height="35" as="geometry" />
        </mxCell>
        <mxCell id="W-gK-uwAD6_eHePclnSL-19" value="4. Validate Computation &amp;amp; &lt;br&gt;Local Search" style="edgeStyle=orthogonalEdgeStyle;curved=1;rounded=0;orthogonalLoop=1;jettySize=auto;html=1;exitX=0.5;exitY=1;exitDx=0;exitDy=0;entryX=0.5;entryY=0;entryDx=0;entryDy=0;startArrow=classic;startFill=1;fontSize=14;fontStyle=1;labelBackgroundColor=none;" parent="1" source="W-gK-uwAD6_eHePclnSL-20" target="W-gK-uwAD6_eHePclnSL-5" edge="1">
          <mxGeometry x="-0.5" y="-89" relative="1" as="geometry">
            <mxPoint as="offset" />
            <mxPoint x="310" y="472.5" as="targetPoint" />
          </mxGeometry>
        </mxCell>
        <mxCell id="W-gK-uwAD6_eHePclnSL-20" value="Agent" style="html=1;dropTarget=0;fillColor=#d5e8d4;strokeColor=#82b366;" parent="1" vertex="1">
          <mxGeometry x="244" y="408" width="70" height="35" as="geometry" />
        </mxCell>
        <mxCell id="W-gK-uwAD6_eHePclnSL-21" value="EDC" style="html=1;dropTarget=0;fillColor=#ffe6cc;strokeColor=#d79b00;" parent="1" vertex="1">
          <mxGeometry x="580" y="408" width="55" height="35" as="geometry" />
        </mxCell>
        <mxCell id="W-gK-uwAD6_eHePclnSL-22" value="4. Validate Computation &amp;amp; &lt;br&gt;Local Search" style="edgeStyle=orthogonalEdgeStyle;curved=1;rounded=0;orthogonalLoop=1;jettySize=auto;html=1;exitX=0.5;exitY=1;exitDx=0;exitDy=0;startArrow=classic;startFill=1;fontSize=14;fontStyle=1" parent="1" source="W-gK-uwAD6_eHePclnSL-23" edge="1">
          <mxGeometry x="-0.4805" y="90" relative="1" as="geometry">
            <mxPoint x="640" y="480" as="targetPoint" />
            <mxPoint x="90" y="-83" as="offset" />
          </mxGeometry>
        </mxCell>
        <mxCell id="W-gK-uwAD6_eHePclnSL-23" value="Agent" style="html=1;dropTarget=0;fillColor=#d5e8d4;strokeColor=#82b366;" parent="1" vertex="1">
          <mxGeometry x="640" y="408" width="80" height="35" as="geometry" />
        </mxCell>
        <mxCell id="W-gK-uwAD6_eHePclnSL-24" value="" style="endArrow=none;startArrow=none;html=1;rounded=0;curved=1;entryX=0;entryY=0.5;entryDx=0;entryDy=0;exitX=1;exitY=0.5;exitDx=0;exitDy=0;startFill=0;endFill=0;dashed=1;" parent="1" source="W-gK-uwAD6_eHePclnSL-21" target="W-gK-uwAD6_eHePclnSL-23" edge="1">
          <mxGeometry width="50" height="50" relative="1" as="geometry">
            <mxPoint x="540" y="480" as="sourcePoint" />
            <mxPoint x="590" y="430" as="targetPoint" />
          </mxGeometry>
        </mxCell>
        <mxCell id="W-gK-uwAD6_eHePclnSL-25" value="" style="endArrow=none;startArrow=none;html=1;rounded=0;curved=1;exitX=1;exitY=0.5;exitDx=0;exitDy=0;endFill=0;startFill=0;dashed=1;" parent="1" source="W-gK-uwAD6_eHePclnSL-20" edge="1">
          <mxGeometry width="50" height="50" relative="1" as="geometry">
            <mxPoint x="310" y="470" as="sourcePoint" />
            <mxPoint x="320" y="426" as="targetPoint" />
          </mxGeometry>
        </mxCell>
        <mxCell id="W-gK-uwAD6_eHePclnSL-29" value="6. Federate Knowledge&lt;br&gt;(Output Dataset: OEM BPNLs + Warnings)" style="edgeStyle=orthogonalEdgeStyle;curved=1;rounded=0;orthogonalLoop=1;jettySize=auto;html=1;exitX=1;exitY=0;exitDx=0;exitDy=0;labelBackgroundColor=none;fontSize=14;startArrow=none;startFill=0;endArrow=classic;endFill=1;fontStyle=1;entryX=0.25;entryY=1;entryDx=0;entryDy=0;fontColor=#000000;fontFamily=Helvetica;" parent="1" source="W-gK-uwAD6_eHePclnSL-13" target="W-gK-uwAD6_eHePclnSL-16" edge="1">
          <mxGeometry x="-0.4771" y="-127" relative="1" as="geometry">
            <mxPoint x="450" y="100" as="targetPoint" />
            <mxPoint x="127" y="126" as="offset" />
          </mxGeometry>
        </mxCell>
        <mxCell id="W-gK-uwAD6_eHePclnSL-39" value="Tier-X" style="verticalAlign=top;align=left;spacingTop=8;spacingLeft=2;spacingRight=12;shape=cube;size=10;direction=south;fontStyle=4;html=1;rounded=0;shadow=0;comic=0;labelBackgroundColor=none;strokeWidth=1;fontFamily=Verdana;fontSize=12;dashed=1;dashPattern=12 12;" parent="1" vertex="1">
          <mxGeometry x="430" y="436" width="110" height="120" as="geometry" />
        </mxCell>
        <mxCell id="W-gK-uwAD6_eHePclnSL-43" style="edgeStyle=orthogonalEdgeStyle;rounded=0;orthogonalLoop=1;jettySize=auto;html=1;curved=1;startArrow=classic;startFill=1;endArrow=none;endFill=0;" parent="1" source="W-gK-uwAD6_eHePclnSL-40" target="W-gK-uwAD6_eHePclnSL-21" edge="1">
          <mxGeometry relative="1" as="geometry" />
        </mxCell>
        <mxCell id="W-gK-uwAD6_eHePclnSL-46" value="&lt;b style=&quot;font-size: 14px;&quot;&gt;5. Delegate Computation&lt;br&gt;Bottom-Up (recursive)&lt;/b&gt;" style="edgeLabel;html=1;align=center;verticalAlign=middle;resizable=0;points=[];" parent="W-gK-uwAD6_eHePclnSL-43" vertex="1" connectable="0">
          <mxGeometry x="-0.3956" y="4" relative="1" as="geometry">
            <mxPoint x="-58" y="98" as="offset" />
          </mxGeometry>
        </mxCell>
        <mxCell id="W-gK-uwAD6_eHePclnSL-40" value="" style="html=1;dropTarget=0;fillColor=#ffe6cc;strokeColor=#d79b00;" parent="1" vertex="1">
          <mxGeometry x="463" y="468.5" width="34" height="35" as="geometry" />
        </mxCell>
        <mxCell id="W-gK-uwAD6_eHePclnSL-41" value="" style="html=1;dropTarget=0;fillColor=#d5e8d4;strokeColor=#82b366;" parent="1" vertex="1">
          <mxGeometry x="462" y="508.5" width="35" height="35" as="geometry" />
        </mxCell>
        <mxCell id="W-gK-uwAD6_eHePclnSL-42" value="&lt;b style=&quot;font-size: 14px;&quot;&gt;&lt;br&gt;&lt;/b&gt;" style="edgeStyle=orthogonalEdgeStyle;rounded=0;orthogonalLoop=1;jettySize=auto;html=1;entryX=0;entryY=0.5;entryDx=0;entryDy=0;curved=1;fontSize=14;startArrow=classic;startFill=1;endArrow=none;endFill=0;" parent="1" source="W-gK-uwAD6_eHePclnSL-18" target="W-gK-uwAD6_eHePclnSL-40" edge="1">
          <mxGeometry x="0.4074" y="-116" relative="1" as="geometry">
            <mxPoint x="97" y="115" as="offset" />
          </mxGeometry>
        </mxCell>
        <mxCell id="un7QEkSLnHoimzCeCq8s-1" value="Semantic Web" style="verticalAlign=top;align=left;spacingTop=8;spacingLeft=2;spacingRight=12;shape=cube;size=10;direction=south;fontStyle=4;html=1;rounded=0;shadow=0;comic=0;labelBackgroundColor=none;strokeWidth=1;fontFamily=Verdana;fontSize=12" vertex="1" parent="1">
          <mxGeometry x="70" y="88.5" width="120" height="120" as="geometry" />
        </mxCell>
        <mxCell id="un7QEkSLnHoimzCeCq8s-7" style="edgeStyle=orthogonalEdgeStyle;rounded=0;orthogonalLoop=1;jettySize=auto;html=1;exitX=0.75;exitY=0;exitDx=0;exitDy=0;entryX=0.25;entryY=0;entryDx=0;entryDy=0;curved=1;" edge="1" parent="1" source="W-gK-uwAD6_eHePclnSL-40" target="W-gK-uwAD6_eHePclnSL-40">
          <mxGeometry relative="1" as="geometry">
            <Array as="points">
              <mxPoint x="489" y="440" />
              <mxPoint x="472" y="440" />
            </Array>
          </mxGeometry>
        </mxCell>
        <mxCell id="un7QEkSLnHoimzCeCq8s-9" value="" style="image;sketch=0;aspect=fixed;html=1;points=[];align=center;fontSize=12;image=img/lib/mscae/Search.svg;" vertex="1" parent="1">
          <mxGeometry x="90" y="125" width="65" height="65" as="geometry" />
        </mxCell>
      </root>
    </mxGraphModel>
  </diagram>
</mxfile>
